<svg id="visual" viewBox="0 0 1536 1152" width="1536" height="1152" xmlns="http://www.w3.org/2000/svg" xmlns:xlink="http://www.w3.org/1999/xlink" version="1.1"><rect x="0" y="0" width="1536" height="1152" fill="#001220"></rect><defs><linearGradient id="grad1_0" x1="25%" y1="0%" x2="100%" y2="100%"><stop offset="23.333333333333336%" stop-color="#001220" stop-opacity="1"></stop><stop offset="76.66666666666666%" stop-color="#001220" stop-opacity="1"></stop></linearGradient></defs><defs><linearGradient id="grad2_0" x1="0%" y1="0%" x2="75%" y2="100%"><stop offset="23.333333333333336%" stop-color="#001220" stop-opacity="1"></stop><stop offset="76.66666666666666%" stop-color="#001220" stop-opacity="1"></stop></linearGradient></defs><g transform="translate(1536, 0)"><path d="M0 864C-64.9 819.7 -129.8 775.4 -204.5 763.1C-279.1 750.8 -363.5 770.5 -432 748.2C-500.5 726 -553.1 661.8 -600.3 600.3C-647.6 538.8 -689.5 480 -720.5 416C-751.6 352 -771.9 282.9 -794 212.7C-816.1 142.6 -840.1 71.3 -864 0L0 0Z" fill="#FBAE3C"></path></g><g transform="translate(0, 1152)"><path d="M0 -864C74.9 -851.9 149.7 -839.8 218.4 -815.2C287.1 -790.7 349.7 -753.6 416 -720.5C482.3 -687.5 552.5 -658.5 610.9 -610.9C669.4 -563.4 716.1 -497.4 738.7 -426.5C761.3 -355.6 759.7 -280 776.6 -208.1C793.5 -136.2 828.7 -68.1 864 0L0 0Z" fill="#FBAE3C"></path></g></svg>