<svg id="visual" viewBox="0 0 1920 1080" width="1920" height="1080" xmlns="http://www.w3.org/2000/svg" xmlns:xlink="http://www.w3.org/1999/xlink" version="1.1"><rect x="0" y="0" width="1920" height="1080" fill="#1D1D1D"></rect><path d="M507 0L526.7 25.7C546.3 51.3 585.7 102.7 613.7 154.2C641.7 205.7 658.3 257.3 664 308.8C669.7 360.3 664.3 411.7 658.3 463C652.3 514.3 645.7 565.7 643.2 617C640.7 668.3 642.3 719.7 651 771.2C659.7 822.7 675.3 874.3 654.5 925.8C633.7 977.3 576.3 1028.7 547.7 1054.3L519 1080L0 1080L0 1054.3C0 1028.7 0 977.3 0 925.8C0 874.3 0 822.7 0 771.2C0 719.7 0 668.3 0 617C0 565.7 0 514.3 0 463C0 411.7 0 360.3 0 308.8C0 257.3 0 205.7 0 154.2C0 102.7 0 51.3 0 25.7L0 0Z" fill="#434343"></path><path d="M623 0L604.8 25.7C586.7 51.3 550.3 102.7 514.5 154.2C478.7 205.7 443.3 257.3 445.5 308.8C447.7 360.3 487.3 411.7 510.7 463C534 514.3 541 565.7 559.2 617C577.3 668.3 606.7 719.7 601.5 771.2C596.3 822.7 556.7 874.3 529.5 925.8C502.3 977.3 487.7 1028.7 480.3 1054.3L473 1080L0 1080L0 1054.3C0 1028.7 0 977.3 0 925.8C0 874.3 0 822.7 0 771.2C0 719.7 0 668.3 0 617C0 565.7 0 514.3 0 463C0 411.7 0 360.3 0 308.8C0 257.3 0 205.7 0 154.2C0 102.7 0 51.3 0 25.7L0 0Z" fill="#313131"></path><path d="M411 0L416 25.7C421 51.3 431 102.7 433.2 154.2C435.3 205.7 429.7 257.3 406.2 308.8C382.7 360.3 341.3 411.7 331 463C320.7 514.3 341.3 565.7 369.5 617C397.7 668.3 433.3 719.7 427.7 771.2C422 822.7 375 874.3 367.7 925.8C360.3 977.3 392.7 1028.7 408.8 1054.3L425 1080L0 1080L0 1054.3C0 1028.7 0 977.3 0 925.8C0 874.3 0 822.7 0 771.2C0 719.7 0 668.3 0 617C0 565.7 0 514.3 0 463C0 411.7 0 360.3 0 308.8C0 257.3 0 205.7 0 154.2C0 102.7 0 51.3 0 25.7L0 0Z" fill="#202020"></path><path d="M336 0L334.8 25.7C333.7 51.3 331.3 102.7 331.3 154.2C331.3 205.7 333.7 257.3 323.8 308.8C314 360.3 292 411.7 273.7 463C255.3 514.3 240.7 565.7 238.2 617C235.7 668.3 245.3 719.7 267.3 771.2C289.3 822.7 323.7 874.3 336.8 925.8C350 977.3 342 1028.7 338 1054.3L334 1080L0 1080L0 1054.3C0 1028.7 0 977.3 0 925.8C0 874.3 0 822.7 0 771.2C0 719.7 0 668.3 0 617C0 565.7 0 514.3 0 463C0 411.7 0 360.3 0 308.8C0 257.3 0 205.7 0 154.2C0 102.7 0 51.3 0 25.7L0 0Z" fill="#1c1c1c"></path><path d="M207 0L201.5 25.7C196 51.3 185 102.7 175.8 154.2C166.7 205.7 159.3 257.3 165 308.8C170.7 360.3 189.3 411.7 195.2 463C201 514.3 194 565.7 186.5 617C179 668.3 171 719.7 172.5 771.2C174 822.7 185 874.3 181 925.8C177 977.3 158 1028.7 148.5 1054.3L139 1080L0 1080L0 1054.3C0 1028.7 0 977.3 0 925.8C0 874.3 0 822.7 0 771.2C0 719.7 0 668.3 0 617C0 565.7 0 514.3 0 463C0 411.7 0 360.3 0 308.8C0 257.3 0 205.7 0 154.2C0 102.7 0 51.3 0 25.7L0 0Z" fill="#191919"></path></svg>