<svg id="visual" viewBox="0 0 1920 1080" width="1920" height="1080" xmlns="http://www.w3.org/2000/svg" xmlns:xlink="http://www.w3.org/1999/xlink" version="1.1"><rect x="0" y="0" width="1920" height="1080" fill="#001122"></rect><path d="M0 529L274 529L274 448L549 448L549 572L823 572L823 562L1097 562L1097 541L1371 541L1371 593L1646 593L1646 488L1920 488L1920 574L1920 1081L1920 1081L1646 1081L1646 1081L1371 1081L1371 1081L1097 1081L1097 1081L823 1081L823 1081L549 1081L549 1081L274 1081L274 1081L0 1081Z" fill="#9900ff"></path><path d="M0 654L274 654L274 634L549 634L549 677L823 677L823 793L1097 793L1097 676L1371 676L1371 737L1646 737L1646 709L1920 709L1920 720L1920 1081L1920 1081L1646 1081L1646 1081L1371 1081L1371 1081L1097 1081L1097 1081L823 1081L823 1081L549 1081L549 1081L274 1081L274 1081L0 1081Z" fill="#7700c6"></path><path d="M0 851L274 851L274 831L549 831L549 888L823 888L823 977L1097 977L1097 921L1371 921L1371 905L1646 905L1646 798L1920 798L1920 822L1920 1081L1920 1081L1646 1081L1646 1081L1371 1081L1371 1081L1097 1081L1097 1081L823 1081L823 1081L549 1081L549 1081L274 1081L274 1081L0 1081Z" fill="#560090"></path></svg>