<svg xmlns="http://www.w3.org/2000/svg" version="1.1" xmlns:xlink="http://www.w3.org/1999/xlink" xmlns:svgjs="http://svgjs.dev/svgjs" width="1000" height="340" viewBox="0 0 1000 340"><g transform="matrix(1,0,0,1,-0.6060606060606233,-0.16514348550913382)"><svg viewBox="0 0 396 135" data-background-color="#ffffff" preserveAspectRatio="xMidYMid meet" height="340" width="1000" xmlns="http://www.w3.org/2000/svg" xmlns:xlink="http://www.w3.org/1999/xlink"><g id="tight-bounds" transform="matrix(1,0,0,1,0.2400000000000091,0.06557167806980146)"><svg viewBox="0 0 395.52 134.8688566438604" height="134.8688566438604" width="395.52"><g><svg viewBox="0 0 395.52 134.8688566438604" height="134.8688566438604" width="395.52"><g><svg viewBox="0 0 395.52 134.8688566438604" height="134.8688566438604" width="395.52"><g><svg viewBox="0 0 395.52 134.8688566438604" height="134.8688566438604" width="395.52"><g><rect width="395.52" height="101.38927703576044" fill="none" stroke-width="9.018103199999999" stroke="#89939e" data-fill-palette-color="none" data-stroke-palette-color="tertiary"></rect><rect width="395.52" height="33.479579608099954" y="101.38927703576044" fill="#89939e" data-fill-palette-color="tertiary"></rect></g><g><svg viewBox="0 0 395.52 101.38927703576044" height="101.38927703576044" width="395.52"><g transform="matrix(1,0,0,1,23.607599999999998,23.607599999999998)"><svg width="348.3048" viewBox="3.549999952316284 -35.5 232.0800018310547 36.099998474121094" height="54.17407703576045" data-palette-color="#89939e"><path d="M3.55-34.9L8.85-34.9 8.85-12.3Q8.85-8.1 10.3-6.1 11.75-4.1 15.45-4.1L15.45-4.1Q19.15-4.1 20.6-6.1 22.05-8.1 22.05-12.3L22.05-12.3 22.05-34.9 27.35-34.9 27.35-13.15Q27.35-9.6 26.73-7 26.1-4.4 24.7-2.7 23.3-1 21.03-0.2 18.75 0.6 15.45 0.6L15.45 0.6Q12.15 0.6 9.88-0.2 7.6-1 6.2-2.7 4.8-4.4 4.17-7 3.55-9.6 3.55-13.15L3.55-13.15 3.55-34.9ZM34.8 0L34.8-34.9 46.3-34.9Q49.4-34.9 51.82-33.9 54.25-32.9 55.92-30.78 57.6-28.65 58.47-25.35 59.35-22.05 59.35-17.45L59.35-17.45Q59.35-12.85 58.47-9.55 57.6-6.25 55.92-4.13 54.25-2 51.82-1 49.4 0 46.3 0L46.3 0 34.8 0ZM40.1-4.65L46.3-4.65Q49.75-4.65 51.7-6.88 53.65-9.1 53.65-13.4L53.65-13.4 53.65-21.5Q53.65-25.8 51.7-28.03 49.75-30.25 46.3-30.25L46.3-30.25 40.1-30.25 40.1-4.65ZM89.4 0L84.05 0 81.34-9.65 69.59-9.65 66.9 0 61.7 0 72.15-34.9 78.9-34.9 89.4 0ZM80.09-14L76.84-25 75.75-30.1 75.09-30.1 74-25 70.9-14 80.09-14ZM104.44 0L99.14 0 99.14-13.5 88.34-34.9 94.29-34.9 101.54-19.3 102.19-19.3 109.34-34.9 115.19-34.9 104.44-13.5 104.44 0ZM141.84 0L136.49 0 133.79-9.65 122.04-9.65 119.34 0 114.14 0 124.59-34.9 131.34-34.9 141.84 0ZM132.54-14L129.29-25 128.19-30.1 127.54-30.1 126.44-25 123.34-14 132.54-14ZM165.14 0L154.74-20.95 152.09-27.45 151.44-27.45 151.84-20.85 151.84 0 146.74 0 146.74-34.9 152.84-34.9 163.24-13.95 165.94-7.45 166.59-7.45 166.19-14.05 166.19-34.9 171.29-34.9 171.29 0 165.14 0ZM199.09 0L199.09-5.15 198.49-5.15Q197.99-2.65 195.94-1.03 193.89 0.6 190.14 0.6L190.14 0.6Q187.44 0.6 185.16-0.4 182.89-1.4 181.19-3.58 179.49-5.75 178.54-9.18 177.59-12.6 177.59-17.4L177.59-17.4Q177.59-22.2 178.51-25.63 179.44-29.05 181.21-31.25 182.99-33.45 185.49-34.48 187.99-35.5 191.14-35.5L191.14-35.5Q195.79-35.5 198.69-33.5 201.59-31.5 203.19-27.8L203.19-27.8 198.84-25.25Q197.94-27.8 196.11-29.3 194.29-30.8 191.19-30.8L191.19-30.8Q187.44-30.8 185.36-28.4 183.29-26 183.29-21.7L183.29-21.7 183.29-13.2Q183.29-8.9 185.36-6.5 187.44-4.1 191.19-4.1L191.19-4.1Q192.74-4.1 194.09-4.55 195.44-5 196.46-5.85 197.49-6.7 198.06-7.98 198.64-9.25 198.64-10.85L198.64-10.85 198.64-13.9 192.19-13.9 192.19-18.45 203.79-18.45 203.79 0 199.09 0ZM235.63 0L230.28 0 227.58-9.65 215.83-9.65 213.13 0 207.93 0 218.38-34.9 225.13-34.9 235.63 0ZM226.33-14L223.08-25 221.98-30.1 221.33-30.1 220.23-25 217.13-14 226.33-14Z" opacity="1" transform="matrix(1,0,0,1,0,0)" fill="#89939e" class="undefined-text-0" data-fill-palette-color="primary" id="text-0"></path></svg></g></svg></g></svg></g></svg></g></svg></g><defs></defs></svg><rect width="395.52" height="134.8688566438604" fill="none" stroke="none" visibility="hidden"></rect></g></svg></g></svg>