<?xml version="1.0" standalone="no"?>
<!DOCTYPE svg PUBLIC "-//W3C//DTD SVG 20010904//EN"
 "http://www.w3.org/TR/2001/REC-SVG-20010904/DTD/svg10.dtd">
<svg version="1.0" xmlns="http://www.w3.org/2000/svg"
 width="64.000000pt" height="64.000000pt" viewBox="0 0 64.000000 64.000000"
 preserveAspectRatio="xMidYMid meet">

<g transform="translate(0.000000,64.000000) scale(0.100000,-0.100000)"
fill="#000000" stroke="none">
<path d="M170 489 c-80 -49 -147 -94 -148 -99 -5 -13 5 -13 29 0 18 10 19 6
19 -140 0 -143 -1 -150 -20 -150 -11 0 -20 -4 -20 -10 0 -6 103 -10 290 -10
187 0 290 4 290 10 0 6 -9 10 -20 10 -19 0 -20 7 -20 150 0 150 0 151 21 140
21 -12 42 -4 23 8 -36 25 -279 175 -288 178 -6 2 -76 -37 -156 -87z m268 -4
l112 -70 0 -157 0 -158 -230 0 -230 0 0 158 0 157 113 71 c61 40 115 71 118
70 3 0 56 -32 117 -71z"/>
<path d="M208 403 l-38 -15 0 -94 c0 -52 2 -94 4 -94 2 0 19 6 38 14 41 17
192 16 225 -2 12 -7 24 -12 27 -12 3 0 6 42 6 94 l0 94 -37 15 c-49 19 -177
19 -225 0z m100 -79 l3 -71 -43 -6 c-24 -2 -51 -8 -60 -12 -16 -6 -18 0 -18
68 0 73 1 76 28 86 15 5 41 9 57 8 l30 -2 3 -71z m111 65 l31 -11 0 -75 c0
-68 -2 -74 -17 -68 -10 4 -37 10 -60 12 l-43 6 0 67 c0 37 3 70 7 73 10 10 46
8 82 -4z"/>
<path d="M210 360 c0 -5 18 -10 40 -10 22 0 40 5 40 10 0 6 -18 10 -40 10 -22
0 -40 -4 -40 -10z"/>
<path d="M210 320 c0 -5 18 -10 40 -10 22 0 40 5 40 10 0 6 -18 10 -40 10 -22
0 -40 -4 -40 -10z"/>
<path d="M230 280 c0 -5 14 -10 30 -10 17 0 30 5 30 10 0 6 -13 10 -30 10 -16
0 -30 -4 -30 -10z"/>
<path d="M350 360 c0 -5 18 -10 40 -10 22 0 40 5 40 10 0 6 -18 10 -40 10 -22
0 -40 -4 -40 -10z"/>
<path d="M350 320 c0 -5 18 -10 40 -10 22 0 40 5 40 10 0 6 -18 10 -40 10 -22
0 -40 -4 -40 -10z"/>
<path d="M350 280 c0 -5 14 -10 30 -10 17 0 30 5 30 10 0 6 -13 10 -30 10 -16
0 -30 -4 -30 -10z"/>
<path d="M110 140 c0 -11 5 -20 10 -20 6 0 10 9 10 20 0 11 -4 20 -10 20 -5 0
-10 -9 -10 -20z"/>
<path d="M160 140 c0 -11 5 -20 10 -20 6 0 10 9 10 20 0 11 -4 20 -10 20 -5 0
-10 -9 -10 -20z"/>
<path d="M210 140 c0 -11 5 -20 10 -20 6 0 10 9 10 20 0 11 -4 20 -10 20 -5 0
-10 -9 -10 -20z"/>
<path d="M260 140 c0 -11 5 -20 10 -20 6 0 10 9 10 20 0 11 -4 20 -10 20 -5 0
-10 -9 -10 -20z"/>
<path d="M310 140 c0 -11 5 -20 10 -20 6 0 10 9 10 20 0 11 -4 20 -10 20 -5 0
-10 -9 -10 -20z"/>
<path d="M360 140 c0 -11 5 -20 10 -20 6 0 10 9 10 20 0 11 -4 20 -10 20 -5 0
-10 -9 -10 -20z"/>
<path d="M410 140 c0 -11 5 -20 10 -20 6 0 10 9 10 20 0 11 -4 20 -10 20 -5 0
-10 -9 -10 -20z"/>
<path d="M460 140 c0 -11 5 -20 10 -20 6 0 10 9 10 20 0 11 -4 20 -10 20 -5 0
-10 -9 -10 -20z"/>
<path d="M510 140 c0 -11 5 -20 10 -20 6 0 10 9 10 20 0 11 -4 20 -10 20 -5 0
-10 -9 -10 -20z"/>
</g>
</svg>
